<svg width="20" height="20" viewBox="0 0 20 20" fill="none" xmlns="http://www.w3.org/2000/svg">
<g clip-path="url(#clip0_396_2475)">
<path d="M3.69434 3.73242C3.86904 3.71732 4.04464 3.75207 4.2002 3.83301C4.35575 3.91399 4.48538 4.03768 4.57324 4.18945C4.71549 4.43553 4.85739 4.68187 5 4.92773L5.5957 5.95508C5.79878 6.30556 6.00209 6.65609 6.20508 7.00684C6.22575 7.0425 6.24682 7.07841 6.26758 7.11426C6.38201 7.06924 6.49753 7.02613 6.61426 6.98535C7.65102 6.62453 8.74018 6.43577 9.83789 6.42578C9.87253 6.42534 9.90774 6.42472 9.94238 6.4248C11.2113 6.42483 12.4252 6.65899 13.5439 7.08594C13.5749 7.09766 13.6058 7.10981 13.6367 7.12207C13.6589 7.08347 13.6809 7.045 13.7031 7.00684C13.906 6.65591 14.1096 6.30502 14.3125 5.9541L14.9082 4.92676C15.0503 4.68102 15.1925 4.43519 15.335 4.18945C15.3958 4.08436 15.4768 3.99173 15.5732 3.91797C15.6697 3.84419 15.7801 3.78995 15.8975 3.75879C16.0006 3.73164 16.1076 3.72243 16.2139 3.73145C16.3529 3.74366 16.4874 3.7873 16.6074 3.8584C16.7392 3.93649 16.8492 4.04625 16.9277 4.17773C16.9953 4.29085 17.0387 4.41697 17.0537 4.54785C17.0687 4.67884 17.0549 4.81197 17.0146 4.9375C16.9948 4.99935 16.9683 5.05977 16.9346 5.11816C16.7923 5.36427 16.6495 5.61057 16.5068 5.85645L15.9111 6.88379C15.7082 7.23434 15.5057 7.58508 15.3027 7.93555C15.2989 7.94208 15.2947 7.94855 15.291 7.95508C15.9374 8.35835 16.5363 8.83358 17.0762 9.37109C17.4819 9.7745 17.8526 10.2117 18.1846 10.6777C18.4566 11.0598 18.7021 11.4601 18.9189 11.876C19.4109 12.8201 19.7508 13.8364 19.9248 14.8867C19.9315 14.9271 19.9381 14.9677 19.9443 15.0088L19.9424 15.0098C19.9649 15.157 19.984 15.3051 20 15.4531H-0.117188C-0.0967168 15.264 -0.0711283 15.0754 -0.0400391 14.8877C0.134074 13.8374 0.473908 12.8211 0.96582 11.877C1.18217 11.461 1.42695 11.0604 1.69922 10.6787C2.03145 10.2128 2.40299 9.77574 2.80859 9.37207C3.35333 8.8299 3.95774 8.35125 4.61035 7.94531C4.60891 7.94243 4.6068 7.93941 4.60547 7.93652C4.40256 7.5856 4.199 7.23471 3.99609 6.88379L3.40137 5.85645L2.97363 5.11816C2.85082 4.90578 2.81698 4.65316 2.87988 4.41602C2.94159 4.18232 3.09297 3.98185 3.30078 3.8584C3.42056 3.78701 3.55538 3.74417 3.69434 3.73242ZM5.98242 11.0273C5.57981 10.7594 4.98553 10.9453 4.65527 11.4424C4.32503 11.9394 4.38366 12.5599 4.78613 12.8281C5.18861 13.096 5.78295 12.9102 6.11328 12.4131C6.44341 11.9162 6.38467 11.2955 5.98242 11.0273ZM15.3643 11.4404C15.0339 10.9438 14.4405 10.7584 14.0381 11.0264C13.6356 11.2944 13.5768 11.9149 13.9072 12.4121C14.2375 12.9089 14.8319 13.0943 15.2344 12.8262C15.6368 12.558 15.6946 11.9375 15.3643 11.4404Z" fill="#34A853"/>
</g>
<defs>
<clipPath id="clip0_396_2475">
<rect width="20" height="20" fill="white"/>
</clipPath>
</defs>
</svg>
