<svg width="20" height="20" viewBox="0 0 20 20" fill="none" xmlns="http://www.w3.org/2000/svg">
<path d="M14.7473 10.2549C14.7395 8.92285 15.343 7.91895 16.5618 7.17871C15.8801 6.20215 14.8489 5.66504 13.4895 5.56152C12.2024 5.45996 10.7942 6.31152 10.2786 6.31152C9.73364 6.31152 8.48755 5.59668 7.50708 5.59668C5.48364 5.62793 3.33325 7.20996 3.33325 10.4287C3.33325 11.3799 3.50708 12.3623 3.85474 13.374C4.31958 14.7061 5.99536 17.9697 7.74341 17.917C8.65747 17.8955 9.30396 17.2686 10.4934 17.2686C11.6477 17.2686 12.2454 17.917 13.2649 17.917C15.0286 17.8916 16.5442 14.9248 16.9856 13.5889C14.6204 12.4736 14.7473 10.3232 14.7473 10.2549ZM12.6946 4.29785C13.6848 3.12207 13.595 2.05176 13.5657 1.66699C12.6907 1.71777 11.679 2.2627 11.1028 2.93262C10.468 3.65137 10.095 4.54004 10.175 5.54199C11.1204 5.61426 11.9836 5.12793 12.6946 4.29785Z" fill="white"/>
</svg>
