<svg width="18" height="18" viewBox="0 0 18 18" fill="none" xmlns="http://www.w3.org/2000/svg">
<path d="M17.026 12.7934C17.0188 12.7734 17.0077 12.755 16.9934 12.7394C16.9791 12.7237 16.9619 12.711 16.9426 12.702C16.9234 12.6931 16.9026 12.688 16.8814 12.6871C16.8601 12.6862 16.839 12.6896 16.8191 12.6969L15.5896 13.1449V2.33287C15.5896 1.57751 14.9789 0.966797 14.2235 0.966797H3.7771C3.02174 0.966797 2.41103 1.57751 2.41103 2.33287V13.1449L1.17955 12.6969C1.16147 12.6909 1.14339 12.6869 1.12531 12.6869C1.03692 12.6869 0.9646 12.7592 0.9646 12.8476V14.0449C0.9646 14.1112 1.00679 14.1715 1.07107 14.1956L8.77933 17.0001C8.92197 17.0523 9.07665 17.0523 9.21929 17.0001L16.9296 14.1976C16.9938 14.1735 17.036 14.1132 17.036 14.0469V12.8496C17.036 12.8295 17.032 12.8114 17.026 12.7934ZM9.00031 15.5416L3.85746 13.6713V2.41323H14.1432V13.6713L9.00031 15.5416ZM11.9856 4.98465H10.8907C10.8304 4.98465 10.7742 5.01881 10.7481 5.07305L9.04652 8.46412H8.98023L7.27866 5.07305C7.26534 5.0466 7.24497 5.02436 7.2198 5.00876C7.19463 4.99316 7.16564 4.98482 7.13603 4.98465H6.01706C5.99094 4.98465 5.96482 4.99068 5.94072 5.00474C5.86237 5.04693 5.83424 5.14537 5.87643 5.22171L7.96371 9.07082H6.81862C6.73023 9.07082 6.6579 9.14314 6.6579 9.23153V9.77595C6.6579 9.86434 6.73023 9.93666 6.81862 9.93666H8.3454V10.7201H6.81862C6.73023 10.7201 6.6579 10.7925 6.6579 10.8809V11.4253C6.6579 11.5137 6.73023 11.586 6.81862 11.586H8.3454V12.8597C8.3454 12.948 8.41773 13.0204 8.50612 13.0204H9.50857C9.59697 13.0204 9.66929 12.948 9.66929 12.8597V11.584H11.2021C11.2905 11.584 11.3628 11.5117 11.3628 11.4233V10.8789C11.3628 10.7905 11.2905 10.7181 11.2021 10.7181H9.66929V9.93466H11.2021C11.2905 9.93466 11.3628 9.86233 11.3628 9.77394V9.22952C11.3628 9.14113 11.2905 9.06881 11.2021 9.06881H10.045L12.1282 5.2197C12.1403 5.19559 12.1483 5.16948 12.1483 5.14336C12.1463 5.05698 12.074 4.98465 11.9856 4.98465Z" fill="#8C8C8C"/>
</svg>
