<svg width="20" height="20" viewBox="0 0 20 20" fill="none" xmlns="http://www.w3.org/2000/svg">
<path d="M6.09398 5.74884C6.09398 6.22855 5.7051 6.61743 5.22539 6.61743C4.74567 6.61743 4.35679 6.22855 4.35679 5.74884C4.35679 5.26913 4.74567 4.88024 5.22539 4.88024C5.7051 4.88024 6.09398 5.26913 6.09398 5.74884Z" fill="#FFF6DD"/>
<path d="M8.96319 6.61734C9.4429 6.61734 9.83179 6.22846 9.83179 5.74875C9.83179 5.26903 9.4429 4.88015 8.96319 4.88015C8.48348 4.88015 8.09459 5.26903 8.09459 5.74875C8.09459 6.22846 8.48348 6.61734 8.96319 6.61734Z" fill="#FFF6DD"/>
<path d="M6.09391 10.0001C6.09391 10.4798 5.70504 10.8687 5.22535 10.8687C4.74566 10.8687 4.35679 10.4798 4.35679 10.0001C4.35679 9.52043 4.74566 9.13156 5.22535 9.13156C5.70504 9.13156 6.09391 9.52043 6.09391 10.0001Z" fill="#FFF6DD"/>
<path d="M8.96299 10.8687C9.44268 10.8687 9.83155 10.4798 9.83155 10.0001C9.83155 9.52044 9.44268 9.13157 8.96299 9.13157C8.4833 9.13157 8.09443 9.52044 8.09443 10.0001C8.09443 10.4798 8.4833 10.8687 8.96299 10.8687Z" fill="#FFF6DD"/>
<path d="M6.09392 14.2511C6.09392 14.7308 5.70505 15.1197 5.22535 15.1197C4.74566 15.1197 4.35679 14.7308 4.35679 14.2511C4.35679 13.7714 4.74566 13.3825 5.22535 13.3825C5.70505 13.3825 6.09392 13.7714 6.09392 14.2511Z" fill="#FFF6DD"/>
<path d="M8.96302 15.1196C9.44272 15.1196 9.83159 14.7308 9.83159 14.2511C9.83159 13.7714 9.44272 13.3825 8.96302 13.3825C8.48333 13.3825 8.09446 13.7714 8.09446 14.2511C8.09446 14.7308 8.48333 15.1196 8.96302 15.1196Z" fill="#FFF6DD"/>
<path d="M15.7283 12.1803C15.2486 12.1803 14.8597 11.7915 14.8597 11.3117C14.8597 10.832 15.2486 10.4431 15.7283 10.4431C16.208 10.4431 16.5969 10.832 16.5969 11.3117C16.5969 11.7915 16.208 12.1803 15.7283 12.1803Z" fill="#FFF6DD"/>
<path d="M14.8597 15.0497C14.8597 15.5294 15.2486 15.9183 15.7283 15.9183C16.208 15.9183 16.5969 15.5294 16.5969 15.0497C16.5969 14.57 16.208 14.1811 15.7283 14.1811C15.2486 14.1811 14.8597 14.57 14.8597 15.0497Z" fill="#FFF6DD"/>
<path fill-rule="evenodd" clip-rule="evenodd" d="M1.47922 1.1582C0.988302 1.1582 0.590332 1.55617 0.590332 2.04709V17.9527C0.590332 18.4436 0.988308 18.8416 1.47922 18.8416H12.7094C12.748 18.8416 12.7861 18.8391 12.8234 18.8343C12.8603 18.839 12.8978 18.8414 12.9359 18.8414H18.5207C19.0116 18.8414 19.4096 18.4434 19.4096 17.9525V8.40837C19.4096 7.91745 19.0116 7.51948 18.5207 7.51948H13.5982V2.04709C13.5982 1.55617 13.2003 1.1582 12.7094 1.1582H1.47922ZM2.14589 17.286V2.71376H12.0427V17.286H2.14589ZM13.6026 17.2858V9.07504H17.854V17.2858H13.6026Z" fill="#FFF6DD"/>
</svg>
