<svg width="36" height="36" viewBox="0 0 36 36" fill="none" xmlns="http://www.w3.org/2000/svg">
<path d="M31.7645 9.02411L23.1181 0.377679C22.877 0.136607 22.5515 0 22.21 0H5.14216C4.431 0 3.85645 0.574554 3.85645 1.28571V34.7143C3.85645 35.4254 4.431 36 5.14216 36H30.8564C31.5676 36 32.1422 35.4254 32.1422 34.7143V9.93616C32.1422 9.59464 32.0056 9.26518 31.7645 9.02411ZM29.177 10.5268H21.6154V2.96518L29.177 10.5268ZM29.2493 33.1071H6.7493V2.89286H18.8832V11.5714C18.8832 12.019 19.061 12.4482 19.3775 12.7647C19.694 13.0811 20.1232 13.2589 20.5707 13.2589H29.2493V33.1071ZM17.6779 22.2589H10.285C10.1082 22.2589 9.96359 22.4036 9.96359 22.5804V24.5089C9.96359 24.6857 10.1082 24.8304 10.285 24.8304H17.6779C17.8547 24.8304 17.9993 24.6857 17.9993 24.5089V22.5804C17.9993 22.4036 17.8547 22.2589 17.6779 22.2589ZM9.96359 17.1161V19.0446C9.96359 19.2214 10.1082 19.3661 10.285 19.3661H25.7136C25.8904 19.3661 26.035 19.2214 26.035 19.0446V17.1161C26.035 16.9393 25.8904 16.7946 25.7136 16.7946H10.285C10.1082 16.7946 9.96359 16.9393 9.96359 17.1161Z" fill="#8C8C8C"/>
</svg>
