<svg width="24" height="24" viewBox="0 0 24 24" fill="none" xmlns="http://www.w3.org/2000/svg">
<path d="M12 1.71094C17.6811 1.71115 22.2852 6.31595 22.2852 11.9971V21.6396C22.2851 21.9958 21.9988 22.2822 21.6426 22.2822H16.7139C15.7684 22.2822 15.0001 21.5138 15 20.5684V14.9971C15 14.0515 15.7683 13.2822 16.7139 13.2822H20.3564V11.9971C20.3564 7.38202 16.615 3.63986 12 3.63965C7.38482 3.63965 3.64258 7.38189 3.64258 11.9971V13.2822H7.28516C8.23069 13.2822 9 14.0515 9 14.9971V20.5684C8.9999 21.5138 8.23063 22.2822 7.28516 22.2822H2.35645C2.00035 22.2821 1.71389 21.9958 1.71387 21.6396V11.9971C1.71387 6.31582 6.31875 1.71094 12 1.71094ZM3.64258 15.2109V20.3535H7.07129V15.2109H3.64258ZM16.9277 15.2109V20.3535H20.3564V15.2109H16.9277Z" fill="white"/>
</svg>
