<svg width="16" height="16" viewBox="0 0 16 16" fill="none" xmlns="http://www.w3.org/2000/svg">
<path d="M8 0C9.075 0 10.1184 0.208594 11.1006 0.621094C12.0577 1.02147 12.9269 1.60591 13.6592 2.34082C14.3967 3.08011 14.9753 3.94146 15.3789 4.90039C15.7949 5.89314 16.0054 6.94877 16 8.03613C15.9946 9.11796 15.7806 10.1659 15.3594 11.1514C14.954 12.1032 14.3732 12.9571 13.6357 13.6875C12.9043 14.4144 12.0383 14.9921 11.0859 15.3877C10.1092 15.793 9.07158 16 8.00195 16H7.96484C6.72472 15.9939 5.5022 15.7003 4.39453 15.1426H1.67871C1.46087 15.1426 1.25169 15.0564 1.09766 14.9023C0.943669 14.7483 0.857422 14.5391 0.857422 14.3213V11.6074C0.299729 10.4998 0.00605938 9.27724 0 8.03711C-0.00530525 6.9551 0.20164 5.90323 0.612305 4.91406C1.00872 3.95876 1.5822 3.10173 2.3125 2.36426C3.03797 1.63082 3.89963 1.04513 4.84863 0.640625C5.83424 0.219296 6.88283 0.00535651 7.96484 0H8ZM7.97168 1.35742C6.19132 1.36456 4.52475 2.06041 3.27832 3.31934C2.03017 4.57824 1.3503 6.24998 1.35742 8.03027C1.36278 9.10691 1.63036 10.1765 2.13379 11.1211L2.21484 11.2715V13.7861H4.72852L4.87891 13.8662C5.82348 14.3697 6.89304 14.6372 7.96973 14.6426H8C9.76783 14.6426 11.4289 13.9609 12.6807 12.7217C13.9378 11.4753 14.6358 9.80884 14.6465 8.03027C14.65 7.12676 14.4773 6.25171 14.1309 5.42676C13.7969 4.63036 13.3146 3.91424 12.7021 3.30176C12.0879 2.68749 11.3735 2.20697 10.5771 1.87305C9.76108 1.53019 8.89481 1.35742 8.00195 1.35742H7.97168ZM4.42871 7.14258C4.65603 7.14258 4.87441 7.23283 5.03516 7.39355C5.1959 7.5543 5.28613 7.77267 5.28613 8C5.28613 8.22733 5.1959 8.4457 5.03516 8.60645C4.87441 8.76717 4.65603 8.85742 4.42871 8.85742C4.2014 8.85741 3.983 8.76718 3.82227 8.60645C3.66154 8.4457 3.57129 8.22732 3.57129 8C3.57129 7.77268 3.66154 7.5543 3.82227 7.39355C3.983 7.23282 4.2014 7.14259 4.42871 7.14258ZM8 7.14258C8.22728 7.14258 8.44571 7.23287 8.60645 7.39355C8.76719 7.5543 8.85742 7.77267 8.85742 8C8.85742 8.22733 8.76719 8.4457 8.60645 8.60645C8.44571 8.76713 8.22728 8.85742 8 8.85742C7.77293 8.85737 7.55519 8.7669 7.39453 8.60645C7.23379 8.4457 7.14258 8.22733 7.14258 8C7.14258 7.77267 7.23379 7.5543 7.39453 7.39355C7.55519 7.2331 7.77293 7.14263 8 7.14258ZM11.5713 7.14258C11.7985 7.14258 12.017 7.23291 12.1777 7.39355C12.3385 7.5543 12.4287 7.77267 12.4287 8C12.4287 8.22733 12.3385 8.4457 12.1777 8.60645C12.017 8.76709 11.7985 8.85742 11.5713 8.85742C11.3442 8.85733 11.1265 8.76691 10.9658 8.60645C10.8051 8.4457 10.7148 8.22733 10.7148 8C10.7148 7.77267 10.8051 7.5543 10.9658 7.39355C11.1265 7.23309 11.3442 7.14267 11.5713 7.14258Z" fill="#BFBFBF"/>
</svg>
