<svg width="14" height="15" viewBox="0 0 14 15" fill="none" xmlns="http://www.w3.org/2000/svg">
<path d="M7.00195 0C9.44817 0.000250884 11.4297 1.98244 11.4297 4.42871C11.4297 5.90528 10.707 7.21399 9.59473 8.01758C9.60181 8.02109 9.60912 8.02282 9.61621 8.02637C10.4137 8.36387 11.1383 8.85286 11.75 9.46582C12.3635 10.077 12.8526 10.8018 13.1895 11.5996C13.5216 12.3835 13.698 13.2148 13.7158 14.0684C13.7162 14.0873 13.713 14.1064 13.7061 14.124C13.6991 14.1417 13.6881 14.1573 13.6748 14.1709C13.6616 14.1844 13.6463 14.1957 13.6289 14.2031C13.6114 14.2105 13.5922 14.2138 13.5732 14.2139H12.502C12.4234 14.2139 12.3602 14.1537 12.3584 14.0752C12.3227 12.6967 11.7695 11.4053 10.791 10.4268C9.77863 9.41437 8.43392 8.85754 7.00195 8.85742C5.56981 8.85742 4.22441 9.41426 3.21191 10.4268C2.2334 11.4053 1.68024 12.6967 1.64453 14.0752C1.64268 14.1518 1.58026 14.2136 1.50195 14.2139H0.429688C0.410885 14.2138 0.392348 14.2104 0.375 14.2031C0.357431 14.1957 0.341438 14.1845 0.328125 14.1709C0.314871 14.1573 0.30384 14.1417 0.296875 14.124C0.289963 14.1064 0.286695 14.0873 0.287109 14.0684C0.303506 13.2202 0.482886 12.3824 0.814453 11.6016C1.15194 10.8042 1.64006 10.0794 2.25293 9.46777C2.86892 8.84999 3.58684 8.36582 4.38672 8.02832C4.39377 8.02479 4.40115 8.02301 4.4082 8.01953C3.29593 7.21417 2.57327 5.9053 2.57324 4.42871C2.57324 1.98228 4.55552 0 7.00195 0ZM7.00195 1.35742C6.1824 1.35742 5.41041 1.6766 4.83008 2.25684C4.24972 2.83719 3.92969 3.60907 3.92969 4.42871C3.92971 5.24822 4.24988 6.01929 4.83008 6.59961C5.41044 7.17997 6.18231 7.5 7.00195 7.5C7.82142 7.49988 8.5926 7.17986 9.17285 6.59961C9.75307 6.01929 10.0732 5.24823 10.0732 4.42871C10.0732 3.60907 9.75321 2.83719 9.17285 2.25684C8.59263 1.67673 7.82132 1.35754 7.00195 1.35742Z" fill="#BFBFBF"/>
</svg>
