<svg width="24" height="24" viewBox="0 0 24 24" fill="none" xmlns="http://www.w3.org/2000/svg">
<g clip-path="url(#clip0_1_5456)">
<path d="M9.86792 0.189453C11.2633 -0.0622663 12.7313 -0.0623105 14.1267 0.189453L14.199 0.202148C14.3701 0.233201 14.5278 0.315807 14.6511 0.438477C14.7745 0.561369 14.8576 0.719416 14.8894 0.890625L15.3103 3.16797C16.2799 3.53225 17.1777 4.05203 17.9812 4.71094L20.1589 3.93652C20.3228 3.8791 20.5001 3.87266 20.6677 3.91797C20.8354 3.96335 20.9858 4.05819 21.0984 4.19043L21.1472 4.24707C22.0757 5.33938 22.799 6.59066 23.282 7.94043L23.3054 8.01074C23.3645 8.17454 23.3723 8.35215 23.3279 8.52051C23.2834 8.68893 23.1887 8.83984 23.0564 8.95312L21.3025 10.4531C21.3855 10.9621 21.4285 11.4823 21.4285 12.002C21.4284 12.5215 21.3855 13.041 21.3025 13.5498L23.0564 15.0498C23.3269 15.2828 23.426 15.6578 23.3054 15.9873L23.282 16.0566C22.7972 17.4066 22.0794 18.6501 21.1472 19.751L21.0984 19.8066C20.9861 19.9394 20.8365 20.0356 20.6687 20.0811C20.5009 20.1265 20.3228 20.1194 20.1589 20.0615L17.9812 19.2871C17.1823 19.9453 16.2796 20.4667 15.3103 20.8301L14.8894 23.1064C14.8577 23.2778 14.7746 23.4356 14.6511 23.5586C14.5278 23.6814 14.3702 23.7638 14.199 23.7949L14.1267 23.8086C12.7185 24.0617 11.2761 24.0617 9.86792 23.8086L9.79468 23.7949C9.62344 23.7638 9.46584 23.6814 9.34253 23.5586C9.2191 23.4356 9.13597 23.2778 9.10425 23.1064L8.68042 20.8193C7.71903 20.4578 6.82712 19.9383 6.02905 19.2822L3.83569 20.0615C3.67168 20.1191 3.49371 20.1255 3.32593 20.0801C3.15809 20.0347 3.00791 19.9391 2.89526 19.8066L2.84741 19.751C1.91527 18.6528 1.19649 17.4066 0.71167 16.0566L0.688232 15.9873C0.629124 15.8234 0.621274 15.645 0.665771 15.4766C0.71032 15.3083 0.805044 15.1571 0.937256 15.0439L2.71265 13.5283C2.62963 13.0275 2.58961 12.5132 2.5896 11.999C2.5896 11.4875 2.62965 10.9732 2.71265 10.4697L0.937256 8.95312C0.66678 8.72012 0.567788 8.34551 0.688232 8.01074L0.71167 7.94043C1.19589 6.59115 1.92 5.3402 2.84741 4.24707L2.89526 4.19043C3.00761 4.05776 3.15812 3.96241 3.32593 3.91699C3.49376 3.87164 3.67179 3.87855 3.83569 3.93652L6.02905 4.71582C6.82302 4.06216 7.71871 3.54306 8.68042 3.17871L9.10425 0.890625C9.13601 0.719401 9.21915 0.561379 9.34253 0.438477C9.46582 0.315797 9.62355 0.233239 9.79468 0.202148L9.86792 0.189453ZM13.1355 2C12.3801 1.91429 11.6108 1.91429 10.8582 2L10.3787 4.60352L9.36401 4.98633C8.60062 5.27561 7.89044 5.68862 7.25562 6.21094L6.41479 6.9043L3.91284 6.01465C3.45752 6.628 3.07489 7.28727 2.77222 7.98633L4.79468 9.71387L4.61987 10.7852C4.55293 11.1842 4.52126 11.5942 4.52124 12.0039C4.52124 12.4109 4.55562 12.8237 4.61987 13.2227L4.79468 14.2939L2.77222 16.0225C3.07749 16.7186 3.45768 17.38 3.91284 17.9932L6.41479 17.1045L7.25562 17.7979C7.89044 18.3202 8.60062 18.7332 9.36401 19.0225L10.3767 19.4102L10.8562 22.0137C11.6126 22.0994 12.3762 22.0994 13.1326 22.0137L13.6121 19.416L14.6326 19.0332C15.404 18.7439 16.1164 18.3307 16.7566 17.8057L17.5974 17.1152L20.0837 17.9961C20.5385 17.385 20.9211 16.7232 21.2244 16.0244L19.2234 14.3135L19.4001 13.2393C19.4671 12.8348 19.5027 12.4191 19.5027 12.0039C19.5027 11.5889 19.4671 11.1739 19.4001 10.7695L19.2263 9.7002L21.2273 7.98926C20.922 7.2929 20.542 6.63092 20.0867 6.01758L17.6003 6.89844L16.7595 6.20801C16.1194 5.68307 15.4041 5.27073 14.6355 4.98145L13.615 4.59766L13.1355 2ZM11.9998 7.02246C14.6032 7.02254 16.7136 9.13283 16.7136 11.7363C16.7136 14.3399 14.6033 16.4501 11.9998 16.4502C9.39618 16.4502 7.28491 14.3399 7.28491 11.7363C7.28494 9.13278 9.3962 7.02246 11.9998 7.02246ZM11.9998 8.73633C11.1989 8.73633 10.4465 9.04744 9.87866 9.61523C9.31349 10.1831 8.99977 10.9355 8.99976 11.7363C8.99914 12.1304 9.07652 12.5207 9.22729 12.8848C9.37807 13.2488 9.59963 13.5792 9.87866 13.8574C10.4465 14.4226 11.1989 14.7363 11.9998 14.7363C12.3938 14.7369 12.7842 14.6595 13.1482 14.5088C13.5122 14.358 13.8426 14.1364 14.1208 13.8574C14.686 13.2896 14.9998 12.5372 14.9998 11.7363C15.0004 11.3423 14.923 10.952 14.7722 10.5879C14.6214 10.2238 14.3999 9.89347 14.1208 9.61523C13.553 9.04741 12.8006 8.73637 11.9998 8.73633Z" fill="white"/>
</g>
<defs>
<clipPath id="clip0_1_5456">
<rect width="24" height="24" fill="white"/>
</clipPath>
</defs>
</svg>
